<?xml version="1.0" standalone="no"?>
<!DOCTYPE svg PUBLIC "-//W3C//DTD SVG 20010904//EN"
 "http://www.w3.org/TR/2001/REC-SVG-20010904/DTD/svg10.dtd">
<svg version="1.0" xmlns="http://www.w3.org/2000/svg"
 width="539.000000pt" height="539.000000pt" viewBox="0 0 539.000000 539.000000"
 preserveAspectRatio="xMidYMid meet">
<metadata>
Created by potrace 1.16, written by Peter Selinger 2001-2019
</metadata>
<g transform="translate(0.000000,539.000000) scale(0.100000,-0.100000)"
fill="#000000" stroke="none">
<path d="M106 5309 c-47 -55 -46 -111 2 -161 20 -22 35 -28 68 -28 25 0 47 6
54 15 7 8 21 15 31 15 11 0 19 5 19 11 0 5 -4 8 -8 5 -5 -3 -24 11 -43 32 -30
33 -31 34 -3 9 46 -41 53 -32 9 13 l-39 40 -23 -22 c-29 -27 -42 -15 -22 20
12 22 23 28 57 30 23 2 42 7 42 11 0 20 -40 41 -77 41 -34 0 -46 -6 -67 -31z"/>
<path d="M2210 5300 c-1 -8 -2 -19 -1 -24 1 -5 -4 -13 -11 -17 -7 -5 21 -8 67
-8 44 0 74 3 68 6 -7 2 -13 17 -13 31 0 20 -3 23 -9 13 -5 -8 -7 -20 -4 -28 3
-7 0 -13 -6 -13 -6 0 -11 7 -11 15 0 9 -9 15 -25 15 -16 0 -25 -6 -25 -15 0
-26 -19 -16 -23 13 -2 15 -5 20 -7 12z"/>
<path d="M2410 5300 c-1 -8 -2 -21 -1 -27 1 -8 -9 -13 -24 -13 -26 0 -35 15
-13 22 8 3 6 7 -5 11 -21 8 -27 -2 -17 -28 7 -17 15 -20 50 -17 23 3 38 7 32
11 -5 3 -12 17 -15 31 -2 14 -5 18 -7 10z"/>
<path d="M2710 5300 c-1 -8 -2 -19 -1 -24 1 -5 -4 -13 -11 -17 -8 -5 9 -8 42
-8 30 0 49 3 43 6 -7 2 -13 13 -13 24 0 10 -4 19 -9 19 -5 0 -7 -9 -4 -20 4
-15 0 -20 -15 -20 -15 0 -22 8 -25 28 -2 15 -5 20 -7 12z"/>
<path d="M2970 5300 c-1 -8 -2 -21 -1 -27 1 -7 -5 -13 -14 -13 -8 0 -15 6 -15
14 0 20 -79 19 -87 0 -8 -21 -23 -17 -23 6 0 11 -4 20 -9 20 -5 0 -7 -9 -4
-20 3 -12 0 -21 -8 -21 -8 -1 4 -5 26 -8 49 -8 65 -4 66 18 0 12 2 11 8 -4 7
-17 16 -19 59 -17 37 3 52 8 55 20 4 15 5 15 6 0 0 -10 5 -18 10 -18 5 0 7 9
4 20 -3 11 -14 20 -24 20 -12 0 -16 -5 -13 -15 4 -9 0 -15 -9 -15 -9 0 -17 11
-20 28 -2 15 -5 20 -7 12z m-85 -30 c3 -5 1 -10 -4 -10 -6 0 -11 5 -11 10 0 6
2 10 4 10 3 0 8 -4 11 -10z"/>
<path d="M2095 5276 c0 -15 6 -26 13 -26 7 0 11 4 8 9 -3 5 4 11 15 14 15 4
19 2 15 -9 -3 -9 1 -14 14 -14 14 0 18 5 13 17 -4 11 -3 14 5 9 7 -4 12 -2 12
3 0 6 -8 11 -19 11 -10 0 -31 3 -47 6 -26 5 -29 3 -29 -20z"/>
<path d="M2595 5276 c0 -24 4 -26 42 -26 35 0 41 3 36 17 -4 11 -3 14 5 9 7
-4 12 -2 12 3 0 6 -8 11 -19 11 -10 0 -31 3 -47 6 -26 5 -29 3 -29 -20z"/>
<path d="M3113 5285 c4 -8 1 -18 -6 -22 -7 -5 4 -10 28 -13 54 -7 83 -1 88 19
4 15 5 15 6 0 1 -18 43 -30 62 -18 15 9 4 39 -15 39 -8 0 -20 -8 -25 -17 -10
-17 -10 -17 -11 -1 0 13 -9 17 -40 16 -22 0 -43 -4 -46 -9 -9 -15 -24 -10 -18
6 4 10 0 15 -11 15 -11 0 -15 -5 -12 -15z m72 -15 c3 -5 1 -10 -4 -10 -6 0
-11 5 -11 10 0 6 2 10 4 10 3 0 8 -4 11 -10z"/>
<path d="M2447 5270 c5 -21 33 -28 33 -9 0 6 7 4 15 -5 19 -18 47 -10 43 13
-4 19 -59 25 -70 7 -6 -8 -8 -7 -8 2 0 6 -4 12 -9 12 -5 0 -7 -9 -4 -20z"/>
<path d="M109 4970 c-16 -17 -16 -19 0 -35 10 -12 4 -10 -19 5 l-35 23 29 -31
c16 -17 33 -29 37 -26 4 2 11 -1 15 -7 4 -8 3 -9 -4 -5 -17 10 -15 -9 1 -23
11 -8 18 -6 32 9 26 28 38 25 30 -7 -10 -41 -24 -53 -61 -53 -32 0 -33 -1 -22
-20 19 -31 88 -27 127 6 28 23 31 31 31 84 0 55 -2 59 -34 79 -42 26 -104 27
-127 1z"/>
<path d="M176 4649 l-47 -42 22 -23 c28 -30 17 -43 -19 -23 -22 12 -28 23 -30
57 -3 46 -11 51 -35 24 -25 -27 -22 -96 4 -121 53 -49 122 -51 172 -6 21 21
27 35 27 69 0 27 -6 48 -15 56 -8 7 -15 21 -15 31 0 28 -12 24 -64 -22z m54
28 c0 -2 -17 -19 -37 -38 l-38 -34 34 38 c33 34 41 42 41 34z"/>
<path d="M2427 4524 c-2 -5 -8 -34 -12 -64 -3 -30 -9 -63 -12 -73 -4 -16 -1
-18 16 -12 12 3 21 5 21 3 0 -2 7 -41 15 -87 8 -47 13 -87 10 -89 -2 -2 -79
-9 -171 -14 -118 -7 -175 -6 -191 1 -24 11 -63 0 -63 -18 0 -13 -707 -322
-723 -315 -9 3 -25 -4 -38 -17 -26 -26 -716 -332 -729 -324 -15 9 -50 -14 -50
-32 0 -9 6 -24 14 -32 18 -22 150 -843 142 -886 -4 -22 -2 -38 7 -47 19 -19
150 -839 142 -889 -6 -35 -4 -39 23 -53 36 -19 211 -215 229 -256 6 -17 19
-30 26 -30 21 0 217 -224 217 -247 0 -40 48 -57 79 -29 12 11 121 20 473 40
428 23 460 24 487 9 27 -16 30 -16 57 3 26 17 74 21 487 44 376 20 461 23 469
12 16 -19 61 -10 72 14 13 28 673 319 725 319 26 0 38 5 45 20 12 28 678 321
718 317 54 -6 77 41 40 82 -14 15 -26 69 -47 199 -15 98 -26 179 -24 181 2 2
59 -6 127 -17 l122 -21 0 -37 c0 -38 16 -54 40 -39 7 4 10 15 7 23 -3 9 0 18
8 21 9 3 12 0 8 -10 -3 -8 1 -14 10 -14 21 0 31 17 15 23 -7 3 -2 6 12 6 57 3
54 18 -12 55 -75 42 -78 42 -78 18 0 -18 -6 -18 -132 5 -73 13 -134 25 -135
27 -1 1 -18 99 -37 217 -22 135 -31 218 -25 224 15 15 10 63 -8 73 -13 8 -30
96 -85 433 -44 278 -64 427 -58 433 25 25 4 76 -31 76 -22 0 -219 218 -219
243 0 10 -10 21 -23 26 -28 11 -223 228 -228 255 -6 31 -35 43 -61 27 -30 -19
-954 -72 -980 -57 -11 7 -24 6 -40 -2 -22 -11 -565 -48 -574 -39 -4 4 -34 163
-34 180 0 4 9 7 20 7 19 0 19 3 -9 58 -39 74 -47 86 -54 76z m1674 -287 c12
-9 30 -96 71 -349 l54 -338 -165 -72 c-103 -45 -179 -73 -201 -73 -25 0 -37
-6 -44 -20 -12 -27 -686 -324 -720 -318 -16 3 -89 77 -210 214 -102 115 -186
213 -186 219 0 5 5 10 10 10 22 0 8 16 -35 39 -28 15 -45 31 -45 42 0 10 -9
27 -21 37 -17 16 -27 62 -61 271 -22 138 -38 254 -35 257 10 10 500 35 556 29
30 -4 56 -3 60 3 4 6 687 51 931 60 14 1 32 -4 41 -11z m135 -129 c49 -57 95
-115 102 -130 6 -16 18 -28 25 -28 14 0 217 -222 217 -237 0 -6 -241 -116
-329 -151 -3 -1 -28 136 -54 305 -27 170 -51 316 -54 326 -2 9 -3 17 0 17 2 0
44 -46 93 -102z m-1718 -209 c39 -241 40 -262 26 -284 -9 -13 -13 -28 -10 -33
4 -6 -233 -303 -264 -331 -3 -3 -12 -1 -21 5 -13 7 -31 101 -85 436 -45 282
-65 431 -58 438 8 8 182 23 329 29 l41 1 42 -261z m-374 -210 c51 -321 66
-433 57 -442 -16 -16 -14 -47 4 -53 22 -9 -50 -94 -77 -91 -16 1 -24 -8 -36
-40 -9 -24 -21 -43 -27 -43 -6 0 -22 -8 -35 -17 -22 -16 -89 -21 -483 -43
-366 -20 -461 -22 -469 -12 -6 6 -19 12 -29 12 -24 0 -209 207 -209 235 0 26
-18 45 -42 45 -14 0 -218 215 -218 230 1 11 697 310 722 310 15 0 33 8 40 18
14 19 680 319 713 321 19 1 24 -27 89 -430z m2466 -31 c52 -295 135 -846 129
-853 -15 -15 -10 -63 7 -73 11 -6 24 -65 49 -217 19 -115 32 -211 31 -213 -4
-3 -348 58 -358 65 -5 2 -8 15 -8 28 0 13 -8 30 -18 37 -15 11 -30 90 -85 433
-60 372 -66 424 -55 453 12 30 11 35 -7 48 -14 10 -24 35 -31 82 -7 37 -11 68
-10 69 0 1 73 33 161 72 136 60 193 80 195 69z m-2051 -155 c-13 -56 -11 -65
9 -59 16 5 21 -16 51 -205 18 -115 32 -212 30 -214 -4 -3 -320 -25 -362 -25
-10 0 -17 24 -25 80 l-12 81 158 189 c86 104 158 190 158 190 1 0 -2 -17 -7
-37z m1686 -67 c4 -31 2 -59 -6 -79 -11 -27 -10 -32 8 -46 17 -14 29 -75 88
-443 55 -337 66 -429 57 -441 -7 -8 -39 -17 -75 -21 -76 -7 -260 25 -289 51
-15 13 -23 15 -37 6 -15 -9 -104 4 -418 60 l-399 71 -31 195 c-27 170 -29 198
-17 217 20 30 677 319 720 316 24 -2 37 3 48 20 20 29 328 169 337 154 4 -6
10 -33 14 -60z m-1231 -365 c21 -24 21 -24 1 -17 -49 18 -75 19 -75 3 0 -19
-28 -24 -156 -30 l-91 -4 -12 76 c-6 42 -22 140 -35 218 -16 102 -19 140 -10
136 6 -2 15 0 18 6 6 8 183 -183 360 -388z m-2344 231 c44 -50 74 -93 76 -109
3 -27 19 -43 44 -43 25 0 210 -215 210 -244 0 -14 7 -29 16 -34 12 -6 31 -108
83 -428 38 -233 64 -423 59 -429 -14 -16 -9 -55 11 -83 11 -15 22 -53 26 -88
l7 -61 -163 -72 c-89 -39 -168 -70 -174 -67 -15 5 -149 845 -141 883 5 20 2
35 -7 44 -8 9 -37 162 -75 404 -34 215 -65 401 -68 415 -6 29 -14 36 96 -88z
m1575 -243 l7 -56 -47 -7 c-87 -11 -94 -8 -46 21 38 22 42 28 29 37 -14 8 -13
13 10 43 15 18 30 29 33 25 4 -4 10 -32 14 -63z m698 -80 c-5 -19 -3 -20 18
-14 13 4 37 14 53 23 28 13 31 13 46 -5 14 -18 78 -369 69 -378 -2 -2 -35 3
-74 10 -38 7 -114 21 -167 30 -76 14 -99 21 -103 36 -3 10 -14 21 -24 24 -15
4 -22 28 -36 123 -27 174 -36 156 75 163 52 3 107 6 122 7 22 2 25 -1 21 -19z
m-280 -21 c3 -13 13 -74 23 -136 13 -85 14 -116 5 -125 -6 -6 -11 -24 -11 -40
0 -22 -30 -65 -132 -187 -113 -136 -134 -157 -148 -147 -14 8 -26 60 -55 246
-21 130 -43 270 -50 311 -7 41 -12 76 -10 78 4 4 225 18 311 21 56 1 62 -1 67
-21z m-399 -25 c3 -16 26 -156 51 -312 38 -239 44 -288 33 -311 -10 -23 -59
-48 -347 -176 -245 -108 -347 -148 -376 -149 -31 0 -42 -5 -49 -21 -6 -14 -60
-43 -170 -91 -88 -40 -162 -71 -163 -70 -9 10 -21 133 -13 141 16 16 12 54 -8
73 -15 14 -32 104 -85 437 -48 295 -64 423 -57 430 6 6 90 15 189 21 168 9
177 9 167 -7 -8 -14 -7 -22 7 -35 16 -16 18 -16 34 0 15 14 16 21 5 37 -12 19
-9 20 40 21 29 0 152 6 273 13 187 12 222 12 236 0 20 -18 53 -18 69 0 13 16
41 22 112 25 43 1 47 -1 52 -26z m725 -337 c79 -14 146 -27 147 -29 4 -4 34
-188 34 -209 0 -15 -10 -18 -64 -18 l-64 0 -100 112 c-83 94 -97 114 -85 124
13 9 10 14 -18 33 -20 13 -26 20 -14 17 11 -3 85 -17 164 -30z m-223 -41 c14
-38 19 -43 32 -33 15 13 35 -5 153 -144 l41 -48 -54 -1 c-29 0 -146 -6 -261
-12 -114 -7 -207 -11 -207 -9 0 1 54 68 121 147 74 89 128 145 139 145 13 0
24 -14 36 -45z m812 -64 c405 -72 474 -93 356 -105 -33 -3 -158 -11 -279 -17
-163 -9 -220 -9 -223 0 -5 16 -59 13 -66 -4 -4 -11 -23 -15 -80 -15 l-74 0
-12 83 c-6 45 -14 92 -17 105 -3 12 -1 22 3 22 5 0 182 -31 392 -69z m541 -97
c2 -2 -19 -4 -48 -4 -32 0 -50 4 -46 10 5 9 83 4 94 -6z m264 -11 c-7 -2 -19
-2 -25 0 -7 3 -2 5 12 5 14 0 19 -2 13 -5z m-67 -23 c60 -11 119 -22 131 -25
25 -6 195 -193 187 -206 -9 -16 16 -49 39 -50 26 -1 202 -196 202 -224 0 -15
-73 -51 -344 -170 -241 -106 -352 -150 -369 -147 -19 4 -31 -2 -46 -20 -31
-37 -712 -337 -717 -315 -21 92 -134 845 -128 851 14 16 10 58 -7 78 -10 10
-23 51 -30 90 -21 116 -25 108 60 108 41 0 78 -4 81 -10 9 -14 36 -12 54 4 12
11 98 19 356 34 440 25 404 25 531 2z m454 -81 l65 -11 29 -180 c15 -99 26
-182 23 -184 -9 -10 -177 191 -177 211 0 25 -18 45 -41 45 -9 0 -51 38 -92 84
l-76 83 102 -19 c56 -10 131 -23 167 -29z m-1580 -30 c7 -39 10 -72 8 -75 -3
-2 -35 30 -72 71 l-67 75 59 0 60 0 12 -71z m-87 -39 c58 -66 80 -97 65 -91
-60 22 -78 22 -78 1 0 -16 -7 -20 -32 -20 -18 0 -188 -9 -378 -20 -190 -11
-358 -20 -375 -19 l-30 0 37 22 c37 21 48 37 28 37 -21 0 -8 23 47 91 31 38
57 69 57 70 2 3 417 26 486 27 l85 1 88 -99z m-743 40 c0 -5 -14 -26 -32 -47
-18 -21 -33 -40 -35 -42 -1 -2 -9 2 -18 9 -12 10 -16 8 -25 -14 -5 -15 -13
-38 -16 -51 -4 -14 -13 -25 -23 -25 -24 0 -41 -20 -41 -48 0 -16 -64 -101
-197 -262 -172 -208 -200 -237 -210 -223 -11 14 -14 12 -28 -20 -8 -21 -22
-53 -30 -74 -8 -20 -13 -38 -10 -41 4 -4 111 56 134 75 3 2 -3 9 -12 16 -14
10 9 42 181 249 128 154 204 237 216 237 11 1 27 7 35 15 12 11 105 19 391 35
458 26 461 26 454 6 -8 -19 4 -19 51 0 43 19 73 12 80 -18 23 -102 131 -825
125 -837 -13 -22 -927 -74 -951 -54 -21 19 -48 18 -70 -2 -15 -14 -92 -21
-479 -42 -454 -25 -462 -25 -479 -6 -14 15 -31 95 -71 352 -31 192 -49 336
-44 341 5 4 74 37 154 72 98 43 158 64 185 64 31 0 42 5 49 21 7 16 99 61 350
172 188 83 347 151 354 151 6 1 12 -3 12 -9z m2805 -90 c3 -5 1 -10 -4 -10 -6
0 -11 5 -11 10 0 6 2 10 4 10 3 0 8 -4 11 -10z m-3955 -406 c0 -3 23 -145 50
-316 28 -171 49 -313 47 -315 -7 -7 -172 189 -175 208 -2 11 -16 26 -31 33
-28 15 -221 227 -221 243 0 5 71 41 158 80 160 73 172 77 172 67z"/>
<path d="M3230 3294 c-11 -12 -10 -18 3 -32 16 -15 18 -15 34 0 13 14 14 20 3
32 -7 9 -16 16 -20 16 -4 0 -13 -7 -20 -16z"/>
<path d="M4505 3070 c-18 -19 -18 -22 -2 -37 16 -16 18 -16 37 3 20 20 20 21
2 37 -18 16 -20 16 -37 -3z"/>
<path d="M915 2280 c-18 -20 -18 -21 3 -43 l22 -21 22 22 c18 18 20 26 12 40
-16 25 -38 26 -59 2z"/>
<path d="M2865 1740 c-18 -19 -18 -22 -2 -37 16 -16 18 -16 37 3 20 20 20 21
2 37 -18 16 -20 16 -37 -3z"/>
<path d="M1616 1393 c-11 -11 -6 -23 8 -23 8 0 17 4 20 9 7 10 -19 23 -28 14z"/>
<path d="M1556 1373 c-8 -21 6 -36 26 -28 10 4 14 14 11 26 -6 23 -29 25 -37
2z"/>
<path d="M2346 4503 c-11 -11 -6 -23 8 -23 8 0 17 4 20 9 7 10 -19 23 -28 14z"/>
<path d="M2283 4484 c-7 -19 14 -35 36 -26 14 6 14 7 -1 10 -10 2 -18 7 -18
12 0 5 7 7 15 4 8 -4 15 -1 15 5 0 17 -40 13 -47 -5z"/>
<path d="M140 4364 c-46 -13 -79 -126 -45 -154 8 -7 15 -24 15 -38 0 -24 2
-23 48 19 47 43 48 44 30 65 -25 29 -23 37 9 29 41 -10 53 -24 53 -61 0 -38 7
-42 26 -16 18 23 17 76 -1 111 -20 39 -81 59 -135 45z m8 -163 c-13 -15 -25
-27 -27 -25 -4 4 39 54 47 54 2 0 -7 -13 -20 -29z"/>
<path d="M109 4027 c-19 -12 -43 -39 -53 -59 -18 -31 -18 -40 -7 -77 13 -45
57 -81 99 -81 31 0 99 36 114 60 11 18 14 18 30 3 17 -15 18 -13 18 45 l0 62
-62 0 c-59 0 -60 -1 -45 -18 23 -25 22 -29 -13 -47 -41 -21 -67 -19 -86 10
-15 22 -14 26 3 55 10 18 34 40 53 50 34 18 34 19 9 20 -14 0 -41 -10 -60 -23z
m188 -119 c-2 -13 -4 -5 -4 17 -1 22 1 32 4 23 2 -10 2 -28 0 -40z m-155 -68
c31 -7 31 -8 6 -9 -18 -1 -38 9 -56 27 -15 15 -18 19 -6 8 13 -10 38 -22 56
-26z"/>
<path d="M155 3724 c-16 -9 -38 -28 -48 -41 l-19 -24 -24 22 -24 22 0 -66 0
-67 67 0 66 0 -22 23 c-17 19 -19 26 -9 34 20 16 68 25 99 18 25 -6 29 -11 29
-39 0 -35 -23 -62 -75 -89 -25 -14 -27 -16 -9 -17 39 0 79 20 101 53 30 43 29
119 -1 154 -27 32 -89 40 -131 17z m78 -11 c-7 -2 -21 -2 -30 0 -10 3 -4 5 12
5 17 0 24 -2 18 -5z m58 -40 c13 -16 12 -17 -3 -4 -10 7 -18 15 -18 17 0 8 8
3 21 -13z m-224 -65 c-2 -13 -4 -5 -4 17 -1 22 1 32 4 23 2 -10 2 -28 0 -40z"/>
<path d="M74 3406 c-45 -45 -45 -77 0 -122 34 -34 59 -41 86 -24 10 6 26 -2
57 -31 23 -21 46 -39 51 -39 25 0 17 17 -23 52 -39 35 -43 42 -35 64 6 14 10
34 10 46 0 27 -62 88 -90 88 -12 0 -37 -15 -56 -34z m101 -11 c32 -31 32 -69
0 -100 -31 -32 -55 -32 -89 0 -33 30 -34 68 -1 100 31 32 59 32 90 0z"/>
<path d="M120 3380 c0 -13 -7 -20 -20 -20 -11 0 -20 -4 -20 -10 0 -5 9 -10 20
-10 15 0 20 -7 20 -25 0 -14 5 -25 10 -25 6 0 10 11 10 25 0 18 5 25 20 25 11
0 20 5 20 10 0 6 -9 10 -20 10 -13 0 -20 7 -20 20 0 11 -4 20 -10 20 -5 0 -10
-9 -10 -20z"/>
<path d="M210 3287 c0 -2 15 -16 33 -33 l32 -29 -29 33 c-28 30 -36 37 -36 29z"/>
<path d="M75 3089 c-47 -42 -47 -79 -1 -125 34 -34 59 -41 85 -25 11 7 28 -2
64 -31 36 -31 51 -38 60 -29 9 9 1 22 -33 54 -37 35 -40 36 -15 7 l30 -35 -32
29 c-27 24 -30 32 -22 53 17 45 10 70 -26 102 -20 17 -44 31 -55 31 -11 0 -35
-14 -55 -31z m99 -10 c34 -27 35 -71 1 -104 -31 -32 -55 -32 -89 0 -35 32 -35
76 0 104 15 12 34 21 44 21 10 0 29 -9 44 -21z"/>
<path d="M80 3030 c0 -17 7 -20 50 -20 43 0 50 3 50 20 0 17 -7 20 -50 20 -43
0 -50 -3 -50 -20z"/>
<path d="M131 2793 c0 -11 3 -13 6 -5 3 8 27 12 68 12 41 0 65 -4 68 -12 3 -8
6 -6 6 5 1 15 -9 17 -74 17 -65 0 -75 -2 -74 -17z"/>
<path d="M173 2773 c15 -2 39 -2 55 0 15 2 2 4 -28 4 -30 0 -43 -2 -27 -4z"/>
<path d="M153 2743 c15 -2 37 -2 50 0 12 2 0 4 -28 4 -27 0 -38 -2 -22 -4z"/>
<path d="M101 2733 c0 -7 -9 -13 -19 -13 -44 0 -71 -82 -37 -110 8 -7 15 -25
15 -41 l0 -29 108 2 107 2 -102 3 c-101 4 -103 4 -103 28 0 23 2 24 106 27
104 3 105 3 101 -19 -2 -12 0 -20 4 -17 5 3 9 16 9 29 0 13 5 27 10 30 6 3 10
26 10 51 0 42 -1 44 -29 44 -16 0 -32 6 -34 13 -3 7 -6 5 -6 -5 -1 -15 -11
-18 -65 -18 -53 0 -65 3 -69 18 -3 9 -5 11 -6 5z m199 -65 c0 -52 -19 -59
-147 -56 l-108 3 -3 33 c-5 53 4 57 137 57 l121 0 0 -37z"/>
<path d="M228 2663 c6 -2 18 -2 25 0 6 3 1 5 -13 5 -14 0 -19 -2 -12 -5z"/>
<path d="M143 2723 c15 -2 39 -2 55 0 15 2 2 4 -28 4 -30 0 -43 -2 -27 -4z"/>
</g>
</svg>
